# xmcd
#
# Track frame offsets: 
#        150
#        15928
#        30087
#        41154
#        54569
#        67887
#        87039
#        105868
#        124579
#        136280
#        148408
#        160896
#        170398
#        181212
#        195633
#        208547
#        220793
#        232560
#        244065
#        255947
#
# Disc length: 3576 seconds
#
# Revision: 0
# Processed by: cddbd v1.5.2PL0 Copyright (c) Steve Scherf et al.
# Submitted via: ExactAudioCopy v1.1
#
DISCID=f60df614
DTITLE=Various Artist - All-Time Country Favourites - Love Songs Disc
DTITLE=2
DYEAR=2010
DGENRE=Country
TTITLE0=Crystal Gayle - I'll get over you
TTITLE1=Kenny Rogers and Dottie West - All I ever need is you
TTITLE2=Roger Miller - Husbands and wives
TTITLE3=Billie Jo Spears - Fever
TTITLE4=Dr Hook - A little bit more
TTITLE5=Kenny Rogers - She believes in me
TTITLE6=Marty Raybon - Love can build a bridge
TTITLE7=Jane Weston - When you say nothing at all
TTITLE8=Merle Haggard - Carolyn
TTITLE9=Brenda Lee - If you love me ( really love me )
TTITLE10=B J Thomas - I can't help it ( if I'm still in love with you 
TTITLE10=)
TTITLE11=Glen Campbell and Bobbie Gentry - Let it be me
TTITLE12=George Jones and Tammy Wynette - Near you
TTITLE13=Charlie Rich and Janie Fricke - On my knees
TTITLE14=Anne Murray - I just fall in love again
TTITLE15=Conway Twitty - To see my angel cry
TTITLE16=Wanda Jackson - In the middle of a heartache
TTITLE17=Willie Nelson and Patsy Cline - Just out of reach
TTITLE18=Waylon Jennings - Crying
TTITLE19=Elvis Presley - Love me tender
EXTD=
EXTT0=
EXTT1=
EXTT2=
EXTT3=
EXTT4=
EXTT5=
EXTT6=
EXTT7=
EXTT8=
EXTT9=
EXTT10=
EXTT11=
EXTT12=
EXTT13=
EXTT14=
EXTT15=
EXTT16=
EXTT17=
EXTT18=
EXTT19=
PLAYORDER=
